<svg xmlns="http://www.w3.org/2000/svg" version="1.1" xmlns:xlink="http://www.w3.org/1999/xlink" xmlns:svgjs="http://svgjs.com/svgjs" width="800" height="800"><svg xmlns="http://www.w3.org/2000/svg" xmlns:xlink="http://www.w3.org/1999/xlink" version="1.1" width="800" height="800" viewBox="0 0 800 800" xml:space="preserve">
<desc>Created with Fabric.js 4.6.0</desc>
<defs>
</defs>
<g transform="matrix(1 0 0 1 398.4 398.4)" id="SvgjsG1010">
<path style="stroke: rgb(23,24,29); stroke-width: 1; stroke-dasharray: none; stroke-linecap: butt; stroke-dashoffset: 0; stroke-linejoin: miter; stroke-miterlimit: 4; fill: rgb(23,24,29); fill-rule: nonzero; opacity: 1;" vector-effect="non-scaling-stroke" transform=" translate(0, 0)" d="M -400 -400 L 400 -400 L 400 400 L -400 400 z" stroke-linecap="round"></path>
</g>
<g transform="matrix(0 -1.02 -3.47 0 412.31 183.98)" id="SvgjsG1009">
<path style="stroke: rgb(105,112,249); stroke-width: 0; stroke-dasharray: none; stroke-linecap: butt; stroke-dashoffset: 0; stroke-linejoin: miter; stroke-miterlimit: 4; fill: rgb(21,202,131); fill-rule: nonzero; opacity: 1;" vector-effect="non-scaling-stroke" transform=" translate(0, 0)" d="M -72.46377 -63.59652 C -72.46377 -68.49377 -58.95509 -72.46377 -42.29129999999999 -72.46377 L 42.291290000000004 -72.46377 L 42.291290000000004 -72.46377 C 58.95509 -72.46377 72.46376000000001 -68.49377 72.46376000000001 -63.59652 L 72.46376000000001 63.596509999999995 L 72.46376000000001 63.596509999999995 C 72.46376000000001 68.49376 58.95508000000001 72.46376 42.291290000000004 72.46376 L -42.29129999999999 72.46376 L -42.29129999999999 72.46376 C -58.95509999999999 72.46376 -72.46377 68.49376 -72.46377 63.596509999999995 z" stroke-linecap="round"></path>
</g>
<g transform="matrix(3.54 0 0 3.27 411.09 369.97)" id="SvgjsG1008">
<path style="stroke: rgb(212,11,89); stroke-width: 0; stroke-dasharray: none; stroke-linecap: butt; stroke-dashoffset: 0; stroke-linejoin: miter; stroke-miterlimit: 4; fill: rgb(23,24,29); fill-rule: nonzero; opacity: 1;" vector-effect="non-scaling-stroke" transform=" translate(0, 0)" d="M 0 -69.32409 C 38.2669 -69.32409 69.32409 -38.2669 69.32409 0 C 69.32409 38.2669 38.2669 69.32409 0 69.32409 C -38.2669 69.32409 -69.32409 38.2669 -69.32409 0 C -69.32409 -38.2669 -38.2669 -69.32409 0 -69.32409 z" stroke-linecap="round"></path>
</g>
<g transform="matrix(1.02 0 0 3.17 411.09 445.71)" id="SvgjsG1007">
<path style="stroke: rgb(105,112,249); stroke-width: 0; stroke-dasharray: none; stroke-linecap: butt; stroke-dashoffset: 0; stroke-linejoin: miter; stroke-miterlimit: 4; fill: rgb(64,73,90); fill-rule: nonzero; opacity: 1;" vector-effect="non-scaling-stroke" transform=" translate(0, 0)" d="M -72.46377 -62.77756 C -72.46377 -68.1271 -58.96921 -72.46377 -42.32281999999999 -72.46377 L 42.322810000000004 -72.46377 L 42.322810000000004 -72.46377 C 58.9692 -72.46377 72.46376000000001 -68.12711 72.46376000000001 -62.777559999999994 L 72.46376000000001 62.77757000000001 L 72.46376000000001 62.77757000000001 C 72.46376000000001 68.12711000000002 58.96920000000001 72.46378000000001 42.322810000000004 72.46378000000001 L -42.32281999999999 72.46378000000001 L -42.32281999999999 72.46378000000001 C -58.96920999999999 72.46378000000001 -72.46377 68.12712000000002 -72.46377 62.77757000000001 z" stroke-linecap="round"></path>
</g>
<g transform="matrix(2.1 0 0 2.22 412.31 596.56)" id="SvgjsG1006">
<path style="stroke: rgb(247,8,247); stroke-width: 0; stroke-dasharray: none; stroke-linecap: butt; stroke-dashoffset: 0; stroke-linejoin: miter; stroke-miterlimit: 4; fill: rgb(23,24,29); fill-rule: nonzero; opacity: 1;" vector-effect="non-scaling-stroke" transform=" translate(0, 0)" d="M -40 -40 L 40 -40 L 40 40 L -40 40 z" stroke-linecap="round"></path>
</g>
<g transform="matrix(2.44 0 0 2.44 315.68 522.5)" id="SvgjsG1005">
<path style="stroke: rgb(156,177,104); stroke-width: 0; stroke-dasharray: none; stroke-linecap: butt; stroke-dashoffset: 0; stroke-linejoin: miter; stroke-miterlimit: 4; fill: rgb(39,144,111); fill-rule: nonzero; opacity: 1;" vector-effect="non-scaling-stroke" transform=" translate(0, 0)" d="M 0 -69.32409 C 38.2669 -69.32409 69.32409 -38.2669 69.32409 0 C 69.32409 38.2669 38.2669 69.32409 0 69.32409 C -38.2669 69.32409 -69.32409 38.2669 -69.32409 0 C -69.32409 -38.2669 -38.2669 -69.32409 0 -69.32409 z" stroke-linecap="round"></path>
</g>
<g transform="matrix(0.6 0 0 2.24 301.24 632.05)" id="SvgjsG1004">
<path style="stroke: rgb(235,87,168); stroke-width: 0; stroke-dasharray: none; stroke-linecap: butt; stroke-dashoffset: 0; stroke-linejoin: miter; stroke-miterlimit: 4; fill: rgb(23,24,29); fill-rule: nonzero; opacity: 1;" vector-effect="non-scaling-stroke" transform=" translate(0, 0)" d="M -59.52381 -59.52381 L 59.52381 -59.52381 L 59.52381 59.52381 L -59.52381 59.52381 z" stroke-linecap="round"></path>
</g>
<g transform="matrix(-1.53 0 0 -1.73 205.95 616.94)" id="SvgjsG1003">
<path style="stroke: none; stroke-width: 1; stroke-dasharray: none; stroke-linecap: butt; stroke-dashoffset: 0; stroke-linejoin: miter; stroke-miterlimit: 4; fill: rgb(21,202,131); fill-rule: nonzero; opacity: 1;" vector-effect="non-scaling-stroke" transform=" translate(-40, -40)" d="M 0 0 L 80 80 L 0 80 L 0 0 z" stroke-linecap="round"></path>
</g>
<g transform="matrix(1.03 0 0 1.03 205.86 615.78)" id="SvgjsG1002">
<path style="stroke: rgb(0,0,0); stroke-width: 0; stroke-dasharray: none; stroke-linecap: butt; stroke-dashoffset: 0; stroke-linejoin: miter; stroke-miterlimit: 4; fill: rgb(21,202,131); fill-rule: nonzero; opacity: 1;" vector-effect="non-scaling-stroke" transform=" translate(0, 0)" d="M 8.53837 9.70872 L -59.75135 -67.94138 L -58.78408 -59.931779999999996 L -58.78408 -59.931779999999996 C -51.74786 -1.667589999999997 -10.824350000000003 46.87436 45.41121 63.66082000000001 L 59.751329999999996 67.94138000000001 z" stroke-linecap="round"></path>
</g>
<g transform="matrix(1.3 0 0 1.2 202.04 426.92)" id="SvgjsG1001">
<path style="stroke: rgb(159,195,233); stroke-width: 0; stroke-dasharray: none; stroke-linecap: butt; stroke-dashoffset: 0; stroke-linejoin: miter; stroke-miterlimit: 4; fill: rgb(23,24,29); fill-rule: nonzero; opacity: 1;" vector-effect="non-scaling-stroke" transform=" translate(0, 0)" d="M -104.16667 -104.16667 L 104.16666 -104.16667 L 104.16666 104.16666 L -104.16667 104.16666 z" stroke-linecap="round"></path>
</g>
<g transform="matrix(1 0 0 0.37 130.63 528.5)" id="SvgjsG1000">
<path style="stroke: rgb(243,76,149); stroke-width: 0; stroke-dasharray: none; stroke-linecap: butt; stroke-dashoffset: 0; stroke-linejoin: miter; stroke-miterlimit: 4; fill: rgb(23,24,29); fill-rule: nonzero; opacity: 1;" vector-effect="non-scaling-stroke" transform=" translate(0, 0)" d="M -35.21127 -35.21127 L 35.21127 -35.21127 L 35.21127 35.21127 L -35.21127 35.21127 z" stroke-linecap="round"></path>
</g>
</svg><style>@media (prefers-color-scheme: light) { :root { filter: none; } }
</style></svg>