<svg id="Layer_1" data-name="Layer 1" xmlns="http://www.w3.org/2000/svg" viewBox="0 0 1440 189.67"><defs><style>.cls-1{fill:#fff;opacity:0;}.cls-2{fill:#091629;}.cls-3{fill:#061428;}</style></defs><rect class="cls-1" width="1440" height="189"/><g id="_547302" data-name="547302"><path class="cls-2" d="M188.86,107l3.9-2.41L204,99.82a28.33,28.33,0,0,1,14.74-1.5c9.45,1.5,24,3.56,25,3.24a38.72,38.72,0,0,0,4.17-2.37,66.18,66.18,0,0,1,7.82-4.34l11.67-3.58a13.11,13.11,0,0,1,9.9,1.21l.65.41,4.43,3,7.8,1a5.26,5.26,0,0,1,2.09.68L296.5,100a7.35,7.35,0,0,0,6.65.14l.59-.31a6.22,6.22,0,0,1,4.71-.28l5.65,2,9.11,3h1.52a17.32,17.32,0,0,1,10.33,3.09l.94.73h7.36a28.16,28.16,0,0,0,11.09-2.18l2.78-1.2a5.48,5.48,0,0,1,2.21-.44h8.06a4.28,4.28,0,0,1,2.6.79l6.51,5.11,6.72-2.08,12.31,2.08h13.1L427,113.27l20-6.39h14.71l14.55,1.5,10.38-6.52a2.35,2.35,0,0,1,1.18-.3h10l10.87-4.63,13.75-2.08,11.67-5.08,18.07-4.86a23.74,23.74,0,0,1,16.41,1.23l.42.21,30.17,10.58,11.67,4.63,18.7,1.82,11.15-1.82,1-.67a4.82,4.82,0,0,1,4.74-.11l4,2.35,7.5.25,2.27-1.2a35.84,35.84,0,0,1,16.41-3.74l7-1.51,14.87-5.43h12l18.71,3.35,6.39,3.59,16.15,1.5,4.31,4.62h26.86l9.77-2.58,13.44-8.64A10.53,10.53,0,0,1,812.89,92l10.23,2.84,12.3,3.59,7.05-5.09,4.15-2.21a4.77,4.77,0,0,1,4.72.26l4.56,3.45,3.84,5.09,9.79,2.85a30.81,30.81,0,0,1,4.33,1.63l5.7,2.69,5.88-1a25.8,25.8,0,0,1,15.68,2.06l1.15.59h5.26c1.44,0,2.88.06,4.31.19l12.2-3.77.44-.19a24,24,0,0,1,16.49-.69l17.64,5.45,11.24,5.46,13.56,2.53,10.48,5,10,.33a2.2,2.2,0,0,1,1.15.35l4,2.8,17.89,3.2,2.57-.18,14.69.49,15.2,5.51,6.81,1.22,15.85-1.89,13.1.43,12.46-1.67,6.53,2.3,6.93-4.89a4.45,4.45,0,0,1,2.66-.7l8,.27a5.41,5.41,0,0,1,2.17.5l2.68,1.3a27.54,27.54,0,0,0,10.89,2.54l7.35.24,1-.7a17.94,17.94,0,0,1,10.56-2.74l1.52,0,9.35-2.7,5.81-1.82a6.16,6.16,0,0,1,4.68.43l.56.33a7.34,7.34,0,0,0,6.66.08l4.41-2.39a5.56,5.56,0,0,1,2.14-.61l7.87-.69,4.66-2.8.68-.38a13.28,13.28,0,0,1,10-.89l11.36,4a61.86,61.86,0,0,1,7.45,4.58,35.58,35.58,0,0,0,4,2.51c1,.35,15.67-1.23,25.23-2.41a27.94,27.94,0,0,1,14.59,2l10.86,5.11,3.7,2.53a27.25,27.25,0,0,0,8.75,3.79l7.72,3,4.12,1.61h8.53l6.76-1.61h9.06l26.61-15.56a7.85,7.85,0,0,1,7.6.25l11.56,8.51,11.12,2.05,8.27,4.75,9.18,5.43,5.92,4.08,6.42,2.61,6.42,2.33v27.34H568.26l-208-6.19-167.45.3L0,180.67V143.53l7.27,1.87L18,143.54l8-3.4h4.84l6.76-2.21,3.84-2.07,6.81-1.77,8.74,4.37,5-2.6,4.75-1.08L73.08,131l4.52-4.05L86,123.39l8.74-4.53,16.69-8.4,20.36,8.4,32.15-2.9,15.92-5.5A28.75,28.75,0,0,0,188.86,107Z"/><path class="cls-3" d="M1251.14,153.19l-3.9-1.1L1236,149.92a61.09,61.09,0,0,0-14.74-.68c-9.45.69-24,1.63-25,1.48-.59-.09-2.23-.54-4.17-1.08-2.64-.74-5.85-1.63-7.82-2L1172.58,146a27.41,27.41,0,0,0-9.9.56l-.65.18-4.43,1.35-7.8.43a10.75,10.75,0,0,0-2.09.31L1143.5,150a15.36,15.36,0,0,1-6.65.06l-.59-.14a13.2,13.2,0,0,0-4.71-.13l-5.65.92-9.11,1.37h-1.52a33.47,33.47,0,0,0-10.33,1.41l-.94.33h-7.36a58.41,58.41,0,0,1-11.09-1l-2.78-.55a11.56,11.56,0,0,0-2.21-.2h-8.06a8.18,8.18,0,0,0-2.6.36l-6.51,2.33-6.72-.95-12.31.95h-13.1L1013,156.06l-20-2.91H978.34l-14.55.68-10.38-3a4.55,4.55,0,0,0-1.18-.14h-10l-10.87-2.11-13.75-1-11.67-2.32-18.07-2.22a50.4,50.4,0,0,0-16.41.56l-.42.09-30.17,4.84-11.67,2.11-18.7.83-11.15-.83-1-.31a10.11,10.11,0,0,0-4.74,0l-4,1.08-7.5.11-2.27-.54a72.66,72.66,0,0,0-16.41-1.72l-7-.68-14.87-2.48h-12l-18.71,1.53-6.39,1.63-16.15.69L684,152.09H657.16l-9.77-1.18L634,147a21.27,21.27,0,0,0-6.84-.61l-10.23,1.3-12.3,1.63L597.53,147l-4.15-1a10,10,0,0,0-4.72.12l-4.56,1.58L580.26,150l-9.79,1.3c-1.53.21-3,.46-4.33.75l-5.7,1.22-5.88-.47a54.65,54.65,0,0,0-15.68.94l-1.15.27h-5.26c-1.44,0-2.88,0-4.31.09L516,152.36l-.44-.09A51.34,51.34,0,0,0,499,152l-17.64,2.49-11.24,2.49-13.56,1.16-10.48,2.27-10,.15a3.8,3.8,0,0,0-1.15.16l-4,1.27L413,163.42l-2.57-.08-14.69.22-15.2,2.51-6.81.56-15.85-.86-13.09.19-12.47-.76-6.53,1.05L318.9,164a8.57,8.57,0,0,0-2.66-.32l-8.05.12a10.86,10.86,0,0,0-2.17.23l-2.68.59a55.35,55.35,0,0,1-10.89,1.16l-7.35.11-1-.31a35.32,35.32,0,0,0-10.56-1.26l-1.52,0-9.35-1.24-5.81-.83a12.89,12.89,0,0,0-4.68.2l-.56.15a15.42,15.42,0,0,1-6.66,0l-4.41-1.09a10.9,10.9,0,0,0-2.14-.28l-7.87-.32-4.66-1.28-.68-.17a28.14,28.14,0,0,0-10-.41L203.85,161c-1.9.39-4.95,1.33-7.45,2.1-1.85.57-3.4,1-4,1.14-.95.16-15.67-.56-25.23-1.1a58.74,58.74,0,0,0-14.59.91l-10.86,2.33-3.7,1.15a48.33,48.33,0,0,1-8.75,1.73l-7.72,1.38-4.12.73h-8.53l-6.76-.73H93.1l-28.24-7.54a8.63,8.63,0,0,0-4.73.13l-12.8,4.3-11.12.94-8.27,2.17-9.18,2.48-5.92,1.86-6.42,1.19L0,177.19v12.48H1440V169.88l-7.27.86-10.73-.85-8-1.56h-4.84l-6.76-1-3.84-.94-6.81-.81-8.74,2-5-1.18-4.75-.49-6.37-1.75-4.52-1.85-8.35-1.61-8.74-2.06-16.69-3.84-20.36,3.84-32.15-1.33-15.92-2.51A52.43,52.43,0,0,1,1251.14,153.19Z"/></g></svg>