<svg width="21" height="27" viewBox="0 0 21 27" fill="none" xmlns="http://www.w3.org/2000/svg">
<path d="M19.6547 5.91304C20.3344 5.91304 20.8854 5.36189 20.8854 4.682V1.23103C20.8854 0.551151 20.3344 -2.35902e-06 19.6547 -2.35902e-06H2.00027C1.32054 -2.35902e-06 0.7695 0.551151 0.7695 1.23103V4.682C0.7695 5.36189 1.32054 5.91304 2.00027 5.91304H19.6547Z" fill="#00FFE1"/>
<path d="M10.7787 1.32853C16.1973 1.32853 20.595 5.39081 20.595 10.3961C20.595 15.4014 16.1973 19.4637 10.7787 19.4637C5.36007 19.4637 0.962376 15.4014 0.962376 10.3961C0.962376 5.39081 5.36007 1.32853 10.7787 1.32853Z" fill="#F6F5F1"/>
<path d="M7.82215 5.46552C7.82215 4.7872 8.37272 4.23731 9.0519 4.23731H12.5054C13.1846 4.23731 13.7352 4.7872 13.7352 5.46552V21.3859C13.7352 22.0642 13.1846 22.6141 12.5054 22.6141H9.0519C8.37272 22.6141 7.82215 22.0642 7.82215 21.3859V5.46552Z" fill="#252B36"/>
<path d="M7.46747 15.9077H14.1875V23.0117H7.46747V15.9077Z" fill="#F6F5F1"/>
<path d="M6.96227 9.73129C10.6971 9.73129 13.7283 12.7625 13.7283 16.4973C13.7283 20.2322 10.6971 23.2634 6.96227 23.2634C3.22742 23.2634 0.196236 20.2322 0.196236 16.4973C0.196236 12.7625 3.22742 9.73129 6.96227 9.73129Z" fill="#00C9B2"/>
<path d="M4.9561 15.546H7.81324V26.2127H4.9561V15.546Z" fill="#F6F5F1"/>
<path d="M5.02107 23.0429L0.125069 17.5069H5.02107V23.0429Z" fill="#00FFE1"/>
<path d="M2.92125 20.6285L0.107712 17.4293L0.147563 17.7593C0.437456 20.1598 2.1235 22.1597 4.44041 22.8513L5.03122 23.0277L2.92125 20.6285Z" fill="#00FFE1"/>
<path d="M-3 7.67412H7.83333V17.6741H-3V7.67412Z" fill="#F6F5F1"/>
</svg>
